<?xml version="1.0" standalone="no"?>
<!DOCTYPE svg PUBLIC "-//W3C//DTD SVG 20010904//EN"
 "http://www.w3.org/TR/2001/REC-SVG-20010904/DTD/svg10.dtd">
<svg version="1.0" xmlns="http://www.w3.org/2000/svg"
 width="1408.000000pt" height="768.000000pt" viewBox="0 0 1408.000000 768.000000"
 preserveAspectRatio="xMidYMid meet">

<g transform="translate(0.000000,768.000000) scale(0.100000,-0.100000)"
fill="#4F46E5" stroke="none">
<path d="M2925 5389 c-492 -36 -923 -384 -1060 -855 -33 -114 -55 -256 -55
-362 0 -320 202 -709 659 -1265 158 -192 539 -624 552 -626 7 -1 305 333 445
499 633 747 820 1141 749 1575 -40 247 -126 437 -276 613 -253 297 -620 450
-1014 421z m318 -333 c225 -57 427 -209 551 -414 136 -227 164 -501 76 -739
-88 -238 -295 -534 -718 -1031 l-131 -153 -114 133 c-130 152 -303 363 -400
490 l-67 86 159 53 159 53 58 -18 c246 -73 505 -7 683 174 76 76 121 148 159
252 25 67 27 85 27 218 -1 138 -2 149 -32 228 -65 169 -183 300 -340 377 -188
92 -425 88 -616 -12 -140 -73 -269 -230 -321 -389 -41 -126 -38 -301 7 -427
l23 -62 -39 -125 c-22 -69 -41 -127 -43 -129 -14 -15 -124 198 -166 319 -31
91 -32 101 -32 240 0 117 5 160 22 225 73 266 261 489 506 600 191 87 383 103
589 51z m-84 -455 c125 -39 219 -122 278 -247 69 -145 55 -314 -39 -454 -47
-72 -130 -138 -216 -172 -75 -30 -242 -32 -312 -4 -73 29 -90 29 -203 -8 -61
-19 -107 -29 -104 -23 23 62 58 207 54 227 -3 14 -15 52 -27 85 -73 196 0 423
173 538 114 76 266 98 396 58z"/>
<path d="M2975 4366 c-21 -47 -44 -87 -51 -90 -7 -3 -47 -8 -89 -12 -42 -4
-78 -11 -81 -16 -4 -6 23 -40 60 -77 l66 -67 -16 -78 c-23 -112 -20 -114 76
-64 l80 43 80 -42 c44 -24 82 -38 85 -33 3 5 -2 49 -11 97 l-17 86 68 65 c47
44 64 67 55 72 -7 4 -47 11 -90 14 -43 4 -83 13 -87 19 -5 7 -22 41 -37 77
-45 103 -47 104 -91 6z"/>
<path d="M11778 4640 c-184 -31 -301 -142 -332 -312 -8 -44 -14 -41 143 -58
108 -12 120 -9 121 28 0 31 34 83 67 103 28 17 45 21 95 17 53 -4 65 -9 89
-36 23 -26 29 -42 29 -78 0 -62 -22 -95 -113 -172 -111 -92 -156 -175 -157
-284 l0 -38 130 0 130 0 0 36 c0 57 28 101 104 166 86 72 121 111 147 161 62
119 33 285 -64 374 -89 80 -245 117 -389 93z"/>
<path d="M9187 4580 c-52 -13 -86 -33 -126 -72 -55 -54 -74 -108 -79 -225 l-4
-103 -69 0 -69 0 0 -90 0 -89 68 -3 67 -3 3 -282 2 -283 115 0 115 0 2 283 3
282 83 0 82 0 0 93 0 92 -85 0 -85 0 0 49 c0 73 10 108 38 137 23 22 33 25 83
22 l56 -3 7 94 c4 51 4 96 1 99 -10 10 -169 11 -208 2z"/>
<path d="M7260 4345 l0 -225 -45 34 c-58 45 -105 59 -190 59 -118 -1 -214 -52
-280 -147 -48 -71 -66 -127 -72 -226 -13 -208 86 -369 259 -421 111 -34 236
-9 304 62 15 16 31 29 36 29 4 0 8 -20 8 -45 l0 -46 108 3 107 3 3 573 2 572
-120 0 -120 0 0 -225z m-88 -361 c69 -35 109 -137 88 -224 -36 -152 -223 -198
-314 -78 -47 63 -56 160 -21 228 44 86 157 120 247 74z"/>
<path d="M9543 4545 c-36 -15 -60 -47 -69 -93 -8 -42 1 -74 32 -111 73 -87
229 -42 241 70 11 110 -97 181 -204 134z"/>
<path d="M5000 4513 c-59 -10 -153 -47 -207 -82 -150 -97 -233 -265 -233 -471
0 -160 48 -284 151 -394 203 -218 594 -223 804 -10 111 112 159 237 158 414
-1 173 -53 300 -167 408 -62 59 -151 106 -238 127 -58 14 -208 18 -268 8z
m224 -233 c69 -26 130 -85 164 -158 24 -50 27 -70 27 -157 0 -87 -3 -107 -26
-155 -58 -125 -141 -180 -269 -180 -54 0 -88 6 -120 21 -210 95 -252 421 -74
578 80 70 194 89 298 51z"/>
<path d="M7948 4210 c-214 -38 -353 -245 -317 -471 29 -181 148 -298 337 -331
135 -23 285 19 371 105 23 22 41 44 41 48 0 4 -37 30 -82 58 l-83 50 -25 -24
c-71 -67 -189 -72 -272 -12 -26 19 -58 72 -58 96 0 8 82 11 275 11 l275 0 0
73 c-1 134 -35 223 -117 304 -33 33 -71 58 -106 71 -63 24 -173 34 -239 22z
m170 -186 c31 -21 62 -73 62 -106 l0 -28 -161 0 -161 0 6 31 c7 38 40 85 69
101 57 30 140 31 185 2z"/>
<path d="M6142 4184 c-28 -14 -63 -39 -76 -55 -14 -16 -27 -29 -30 -29 -3 0
-6 20 -6 45 l0 45 -110 0 -110 0 0 -385 0 -385 114 0 114 0 4 238 c3 216 5
240 23 271 41 69 117 95 180 61 55 -30 60 -52 63 -322 l3 -248 113 0 113 0 7
77 c9 109 7 333 -3 434 -16 148 -73 239 -170 267 -70 21 -171 15 -229 -14z"/>
<path d="M10123 4189 c-145 -50 -248 -185 -260 -339 -10 -135 26 -240 114
-328 91 -92 230 -134 369 -112 69 11 168 52 213 88 l24 20 -74 81 c-41 44 -77
81 -80 81 -4 0 -12 -7 -19 -16 -50 -60 -183 -61 -247 -3 -78 72 -83 210 -10
287 63 68 166 75 243 17 l31 -24 78 79 78 79 -24 20 c-13 12 -53 36 -89 53
-60 31 -73 33 -175 36 -91 2 -121 -2 -172 -19z"/>
<path d="M10868 4191 c-64 -21 -135 -60 -160 -88 -17 -18 -15 -21 42 -78 57
-57 61 -59 83 -45 68 44 112 60 169 60 90 0 143 -37 150 -106 l3 -29 -125 -7
c-167 -8 -244 -32 -310 -96 -110 -107 -86 -279 50 -356 52 -29 61 -31 160 -31
113 0 146 10 201 62 l27 25 6 -39 7 -38 105 3 105 3 -4 277 c-2 183 -7 290
-15 314 -21 62 -73 120 -137 153 -54 28 -67 30 -179 32 -96 2 -133 -1 -178
-16z m292 -462 c0 -93 -70 -159 -168 -159 -87 0 -137 64 -102 131 22 39 102
63 233 68 37 1 37 1 37 -40z"/>
<path d="M9490 3810 l0 -380 120 0 120 0 0 380 0 380 -120 0 -120 0 0 -380z"/>
<path d="M11772 3690 c-125 -76 -80 -264 67 -277 160 -14 233 184 101 275 -43
29 -121 30 -168 2z"/>
<path d="M10748 3073 c12 -2 30 -2 40 0 9 3 -1 5 -23 4 -22 0 -30 -2 -17 -4z"/>
<path d="M11268 3073 c12 -2 30 -2 40 0 9 3 -1 5 -23 4 -22 0 -30 -2 -17 -4z"/>
<path d="M4643 3063 c9 -2 25 -2 35 0 9 3 1 5 -18 5 -19 0 -27 -2 -17 -5z"/>
<path d="M5008 3063 c12 -2 32 -2 45 0 12 2 2 4 -23 4 -25 0 -35 -2 -22 -4z"/>
<path d="M5396 3054 c-10 -25 -7 -29 8 -9 8 12 20 16 35 12 11 -3 21 -1 21 4
0 16 -58 10 -64 -7z"/>
<path d="M5833 3063 c26 -2 68 -2 95 0 26 2 4 3 -48 3 -52 0 -74 -1 -47 -3z"/>
<path d="M6325 3059 c-4 -6 -4 -13 -1 -16 3 -4 6 -1 6 5 0 7 10 12 23 12 17 0
26 -11 41 -46 10 -25 20 -43 22 -41 3 2 -4 25 -15 51 -16 37 -25 46 -45 46
-14 0 -28 -5 -31 -11z"/>
<path d="M6998 3063 c28 -2 76 -2 105 0 28 2 5 3 -53 3 -58 0 -81 -1 -52 -3z"/>
<path d="M7562 3063 c37 -2 100 -2 140 0 40 1 10 3 -67 3 -77 0 -110 -1 -73
-3z"/>
<path d="M8202 3023 l1 -48 4 43 4 42 120 0 c65 0 118 -3 117 -7 -2 -5 1 -10
6 -13 5 -3 10 2 12 11 2 15 -14 17 -132 18 l-134 2 2 -48z"/>
<path d="M8600 3063 c0 -14 53 -143 57 -139 2 2 -7 32 -21 67 -15 34 -26 64
-26 66 0 8 39 2 43 -7 3 -6 4 -5 3 2 -3 14 -56 25 -56 11z"/>
<path d="M8933 3063 c9 -2 25 -2 35 0 9 3 1 5 -18 5 -19 0 -27 -2 -17 -5z"/>
<path d="M9182 3063 c37 -2 100 -2 140 0 40 1 10 3 -67 3 -77 0 -110 -1 -73
-3z"/>
<path d="M9580 3066 c0 -2 18 -6 39 -8 22 -2 37 0 35 4 -5 8 -74 11 -74 4z"/>
<path d="M9892 2948 l2 -123 3 117 c3 111 5 117 26 121 18 4 18 4 -5 6 l-28 1
2 -122z"/>
<path d="M10091 3048 c1 -18 2 -19 6 -5 4 16 18 18 164 15 87 -2 159 0 159 5
0 4 -74 7 -165 7 -165 0 -165 0 -164 -22z"/>
<path d="M10688 3063 c7 -3 16 -2 19 1 4 3 -2 6 -13 5 -11 0 -14 -3 -6 -6z"/>
<path d="M11180 3050 c-9 -6 -10 -10 -3 -10 6 0 15 5 18 10 8 12 4 12 -15 0z"/>
<path d="M11378 3048 c9 -9 8 -16 -6 -32 -17 -21 -17 -21 5 -2 18 15 20 22 12
33 -6 7 -14 13 -17 13 -3 0 -1 -5 6 -12z"/>
<path d="M5460 3035 c0 -5 5 -17 10 -25 5 -8 10 -10 10 -5 0 6 -5 17 -10 25
-5 8 -10 11 -10 5z"/>
<path d="M5863 3033 c15 -2 37 -2 50 0 12 2 0 4 -28 4 -27 0 -38 -2 -22 -4z"/>
<path d="M7048 3033 c6 -2 18 -2 25 0 6 3 1 5 -13 5 -14 0 -19 -2 -12 -5z"/>
<path d="M10718 3033 c7 -3 16 -2 19 1 4 3 -2 6 -13 5 -11 0 -14 -3 -6 -6z"/>
<path d="M11315 3030 c27 -12 43 -12 25 0 -8 5 -22 9 -30 9 -10 0 -8 -3 5 -9z"/>
<path d="M7138 3023 c7 -3 16 -2 19 1 4 3 -2 6 -13 5 -11 0 -14 -3 -6 -6z"/>
<path d="M7255 3010 c10 -11 20 -20 23 -20 3 0 -3 9 -13 20 -10 11 -20 20 -23
20 -3 0 3 -9 13 -20z"/>
<path d="M10675 3020 c-3 -6 1 -7 9 -4 18 7 21 14 7 14 -6 0 -13 -4 -16 -10z"/>
<path d="M10234 2875 c0 -82 2 -115 3 -72 2 43 2 110 0 150 -1 40 -3 5 -3 -78z"/>
<path d="M10271 3004 c0 -11 3 -14 6 -6 3 7 2 16 -1 19 -3 4 -6 -2 -5 -13z"/>
<path d="M6006 2997 c3 -10 9 -15 12 -12 3 3 0 11 -7 18 -10 9 -11 8 -5 -6z"/>
<path d="M6292 2985 c-17 -37 -14 -45 4 -12 9 16 14 31 11 33 -2 2 -9 -7 -15
-21z"/>
<path d="M11141 2984 c0 -11 3 -14 6 -6 3 7 2 16 -1 19 -3 4 -6 -2 -5 -13z"/>
<path d="M7220 2986 c0 -2 8 -10 18 -17 15 -13 16 -12 3 4 -13 16 -21 21 -21
13z"/>
<path d="M8886 2975 c-9 -26 -7 -32 5 -12 6 10 9 21 6 23 -2 3 -7 -2 -11 -11z"/>
<path d="M11182 2965 c0 -16 2 -22 5 -12 2 9 2 23 0 30 -3 6 -5 -1 -5 -18z"/>
<path d="M4946 2965 c-9 -26 -7 -32 5 -12 6 10 9 21 6 23 -2 3 -7 -2 -11 -11z"/>
<path d="M5356 2965 c-9 -26 -7 -32 5 -12 6 10 9 21 6 23 -2 3 -7 -2 -11 -11z"/>
<path d="M10565 2959 c-4 -6 -5 -12 -2 -15 2 -3 7 2 10 11 7 17 1 20 -8 4z"/>
<path d="M6380 2955 c0 -5 5 -17 10 -25 5 -8 10 -10 10 -5 0 6 -5 17 -10 25
-5 8 -10 11 -10 5z"/>
<path d="M10605 2949 c-4 -6 -5 -12 -2 -15 2 -3 7 2 10 11 7 17 1 20 -8 4z"/>
<path d="M8909 2924 c-5 -15 -8 -29 -5 -31 2 -2 8 10 14 26 13 38 5 41 -9 5z"/>
<path d="M11140 2931 c0 -11 4 -22 9 -25 4 -3 6 6 3 19 -5 30 -12 33 -12 6z"/>
<path d="M8866 2925 c-9 -26 -7 -32 5 -12 6 10 9 21 6 23 -2 3 -7 -2 -11 -11z"/>
<path d="M6001 2907 c-13 -21 -12 -21 5 -5 10 10 16 20 13 22 -3 3 -11 -5 -18
-17z"/>
<path d="M10551 2914 c0 -11 3 -14 6 -6 3 7 2 16 -1 19 -3 4 -6 -2 -5 -13z"/>
<path d="M9705 2896 c10 -14 19 -26 22 -26 7 0 -17 39 -28 46 -6 3 -3 -5 6
-20z"/>
<path d="M10591 2894 c0 -11 3 -14 6 -6 3 7 2 16 -1 19 -3 4 -6 -2 -5 -13z"/>
<path d="M6034 2878 l-19 -23 23 19 c12 11 22 21 22 23 0 8 -8 2 -26 -19z"/>
<path d="M7578 2883 c17 -2 47 -2 65 0 17 2 3 4 -33 4 -36 0 -50 -2 -32 -4z"/>
<path d="M7707 2883 c23 -3 33 -10 36 -26 4 -18 5 -17 6 6 1 25 -2 27 -36 25
-37 -1 -37 -1 -6 -5z"/>
<path d="M8298 2883 c28 -2 76 -2 105 0 28 2 5 3 -53 3 -58 0 -81 -1 -52 -3z"/>
<path d="M9205 2884 c70 -8 175 -8 175 -1 0 4 -46 6 -102 5 -57 0 -89 -3 -73
-4z"/>
<path d="M10542 2860 c0 -19 2 -27 5 -17 2 9 2 25 0 35 -3 9 -5 1 -5 -18z"/>
<path d="M10932 2860 c0 -19 2 -27 5 -17 2 9 2 25 0 35 -3 9 -5 1 -5 -18z"/>
<path d="M4740 2875 c0 -5 5 -17 10 -25 5 -8 10 -10 10 -5 0 6 -5 17 -10 25
-5 8 -10 11 -10 5z"/>
<path d="M5540 2855 c0 -5 5 -17 10 -25 5 -8 10 -10 10 -5 0 6 -5 17 -10 25
-5 8 -10 11 -10 5z"/>
<path d="M7271 2834 c0 -11 3 -14 6 -6 3 7 2 16 -1 19 -3 4 -6 -2 -5 -13z"/>
<path d="M8873 2833 c-3 -10 -8 -22 -11 -27 -3 -5 0 -6 5 -3 11 7 25 47 17 47
-3 0 -7 -8 -11 -17z"/>
<path d="M6216 2815 c-9 -26 -7 -32 5 -12 6 10 9 21 6 23 -2 3 -7 -2 -11 -11z"/>
<path d="M9891 2784 c0 -11 3 -14 6 -6 3 7 2 16 -1 19 -3 4 -6 -2 -5 -13z"/>
<path d="M7289 2753 c-13 -16 -12 -17 4 -4 16 13 21 21 13 21 -2 0 -10 -8 -17
-17z"/>
<path d="M5540 2745 c0 -5 5 -17 10 -25 5 -8 10 -10 10 -5 0 6 -5 17 -10 25
-5 8 -10 11 -10 5z"/>
<path d="M10635 2730 c10 -11 20 -20 23 -20 3 0 -3 9 -13 20 -10 11 -20 20
-23 20 -3 0 3 -9 13 -20z"/>
<path d="M10233 2685 c0 -22 2 -30 4 -17 2 12 2 30 0 40 -3 9 -5 -1 -4 -23z"/>
<path d="M10919 2703 c-13 -16 -12 -17 4 -4 16 13 21 21 13 21 -2 0 -10 -8
-17 -17z"/>
<path d="M6166 2695 c-9 -26 -7 -32 5 -12 6 10 9 21 6 23 -2 3 -7 -2 -11 -11z"/>
<path d="M10600 2706 c0 -2 8 -10 18 -17 15 -13 16 -12 3 4 -13 16 -21 21 -21
13z"/>
<path d="M6205 2681 c-3 -12 -17 -21 -33 -24 l-27 -4 27 -2 c18 -1 31 6 38 20
7 11 9 23 7 26 -3 2 -8 -5 -12 -16z"/>
<path d="M5226 2665 c-3 -8 -1 -15 4 -15 6 0 10 7 10 15 0 8 -2 15 -4 15 -2 0
-6 -7 -10 -15z"/>
<path d="M9867 2659 c7 -7 15 -10 18 -7 3 3 -2 9 -12 12 -14 6 -15 5 -6 -5z"/>
<path d="M11218 2643 c7 -3 16 -2 19 1 4 3 -2 6 -13 5 -11 0 -14 -3 -6 -6z"/>
</g>
</svg>
