<?xml version="1.0" standalone="no"?>
<!DOCTYPE svg PUBLIC "-//W3C//DTD SVG 20010904//EN"
 "http://www.w3.org/TR/2001/REC-SVG-20010904/DTD/svg10.dtd">
<svg version="1.0" xmlns="http://www.w3.org/2000/svg"
 width="1408.000000pt" height="768.000000pt" viewBox="0 0 1408.000000 768.000000"
 preserveAspectRatio="xMidYMid meet">

<g transform="translate(0.000000,768.000000) scale(0.100000,-0.100000)"
fill="#4F46E5" stroke="none">
<path d="M6820 5966 c-644 -94 -1166 -536 -1364 -1154 -82 -254 -104 -546 -58
-760 80 -371 312 -781 760 -1347 271 -342 861 -1009 886 -1003 24 6 550 595
726 813 36 44 67 82 70 85 3 3 46 57 96 120 439 557 665 960 746 1330 29 134
29 368 -1 535 -111 621 -544 1122 -1136 1314 -66 22 -160 47 -210 56 -124 22
-395 28 -515 11z m421 -432 c133 -24 216 -52 334 -109 427 -210 705 -652 705
-1122 0 -64 -7 -147 -16 -189 -74 -361 -384 -840 -1028 -1589 -162 -189 -197
-228 -200 -223 -1 1 -68 80 -148 173 -288 337 -648 789 -637 799 18 15 428
137 448 133 14 -3 62 -15 106 -27 114 -33 352 -34 470 -2 521 142 812 684 644
1196 -34 105 -80 192 -98 188 -7 -1 -9 2 -6 8 16 26 -161 230 -185 215 -8 -5
-11 -4 -7 3 4 5 -14 26 -40 45 -65 46 -78 53 -68 37 5 -8 3 -11 -6 -8 -8 3
-13 10 -12 15 6 27 -192 101 -327 123 -271 43 -572 -56 -775 -255 -203 -198
-299 -448 -281 -726 6 -93 41 -240 70 -297 13 -25 9 -41 -40 -197 -30 -93 -54
-175 -54 -182 0 -30 -19 -6 -82 105 -149 261 -208 446 -208 656 0 322 133 637
370 877 234 237 538 366 861 368 76 1 161 -5 210 -15z m8 -657 c181 -64 329
-214 392 -397 27 -80 37 -234 19 -323 -49 -252 -254 -453 -513 -503 -127 -25
-226 -11 -394 57 -30 12 -44 9 -183 -39 -126 -43 -150 -49 -150 -34 0 9 18 81
41 160 l41 144 -31 67 c-106 230 -72 486 89 676 84 100 180 162 310 202 107
33 272 29 379 -10z"/>
<path d="M6973 4553 l-58 -118 -109 -12 c-122 -13 -136 -17 -136 -36 0 -7 38
-48 85 -91 59 -54 85 -84 85 -100 0 -13 -9 -69 -21 -126 -26 -126 -20 -138 49
-97 26 15 76 42 110 60 l64 32 110 -58 c76 -41 113 -56 121 -48 7 7 3 41 -12
111 -11 55 -21 111 -21 124 0 17 25 48 86 105 51 48 84 87 81 95 -4 9 -43 17
-121 26 -76 8 -120 17 -128 27 -6 8 -32 60 -58 116 -25 55 -51 102 -58 105 -7
2 -35 -45 -69 -115z"/>
</g>
</svg>
